<?xml version="1.0" encoding="UTF-8"?><svg xmlns="http://www.w3.org/2000/svg" viewBox="0 0 182 48"><defs><style>.e{fill:#fb4725;}.f{fill:#0066b6;}.g{fill:#fff;}.h{fill:#fc9b3a;}.i{fill:#ff7b39;}.j{fill:#91ca06;}.k{fill:#d6d230;}.l{fill:#22b45c;}.m{fill:#429acc;}.n{fill:#6cbadd;}</style></defs><g id="a"/><g id="b"><g id="c"><g id="d"><g><g><path d="M70.32,29.69h-4.1v12.61h-2.63v-12.61h-4.12v-2.03h10.85v2.03Z"/><path d="M75.15,31.17v11.12h-2.59v-9.2h-1.67v-1.92h4.27Zm-2.97-3.28c0-.88,.71-1.57,1.57-1.57s1.57,.69,1.57,1.57-.69,1.55-1.57,1.55-1.57-.69-1.57-1.55Z"/><path d="M86.78,34.6v7.7h-2.59v-7.49c0-1.4-.67-1.97-1.74-1.97-1,0-1.78,.52-2.4,1.4v8.05h-2.59v-11.12h2.22l.17,1.15c.77-.92,1.82-1.44,3.3-1.44,2.07,0,3.64,1.32,3.64,3.72Z"/><path d="M92.59,37.24l-.94,1.09v3.97h-2.59v-15.47h2.59v8.64l3.81-4.29h2.84l-3.97,4.5,4.66,6.63h-2.89l-3.51-5.06Z"/><path d="M108.66,37.55h-7.17c.04,2.13,1.02,3.07,2.95,3.07,1.21,0,2.11-.44,2.97-.92l.92,1.55c-.94,.71-2.45,1.32-4.06,1.32-3.39,0-5.31-2.24-5.31-5.25v-1.15c0-3.01,1.88-5.29,4.98-5.29s4.81,1.88,4.81,5.42c0,.46-.04,.92-.08,1.25Zm-2.24-1.8c0-1.92-.86-2.97-2.47-2.97s-2.43,1.05-2.47,3.07h4.94v-.1Z"/><path d="M117.4,31.13l-.46,2.4c-.21-.04-.44-.06-.67-.06-1.25,0-2.3,.54-2.93,2.22v6.61h-2.59v-11.12h1.88l.42,1.76c.65-1.44,1.86-2.01,3.01-2.01,.61,0,1.02,.1,1.34,.21Z"/><path d="M118.16,37.2v-.94c0-3.22,1.82-5.37,5.1-5.37,1.51,0,2.66,.48,3.68,1.46l-1.23,1.38c-.69-.61-1.36-.88-2.34-.88-1.63,0-2.61,1.09-2.61,3.37v1.02c0,2.26,.92,3.39,2.59,3.39,1.02,0,1.76-.42,2.45-.9l1.07,1.53c-.92,.77-2.3,1.32-3.64,1.32-3.2,0-5.06-2.15-5.06-5.37Z"/><path d="M137.27,34.79v7.51h-2.03l-.21-1.07c-.94,.92-2.07,1.34-3.3,1.34-1.97,0-3.7-1.19-3.7-3.16v-.73c0-1.94,1.71-3.22,4.62-3.22h2.05v-.75c0-1.32-.67-1.88-1.99-1.88-1.23,0-2.2,.31-3.24,.84l-.79-1.61c1.13-.69,2.59-1.17,4.27-1.17,2.97,0,4.33,1.55,4.33,3.91Zm-2.57,4.77v-2.47h-1.8c-1.53,0-2.3,.56-2.3,1.69v.42c0,.88,.52,1.44,1.63,1.44,.94,0,1.82-.33,2.47-1.09Z"/><path d="M148.96,26.82v15.47h-2.03l-.27-1.21c-.73,.9-1.69,1.48-3.05,1.48-2.59,0-4.41-2.07-4.41-5.25v-1.17c0-3.05,1.84-5.27,4.54-5.27,1.09,0,1.92,.33,2.63,.98v-5.04h2.59Zm-2.59,12.51v-5.56c-.46-.5-1.23-.92-2.2-.92-1.48,0-2.38,1.13-2.38,3.24v1.28c0,2.22,.88,3.26,2.28,3.26,1.02,0,1.71-.5,2.3-1.3Z"/></g><g><polygon points="182 5.7 177.55 5.7 172.23 11.65 172.23 5.7 168.5 5.7 168.51 20.34 172.23 20.34 172.23 14.78 177.28 20.34 182 20.34 175.19 13.11 182 5.7"/><path d="M162.48,11.72l-3.4-.38c-1.99-.22-2.49-.71-2.49-1.39,0-.75,1.02-1.43,3.02-1.43s2.93,.71,3.11,1.79h3.66c-.18-3.09-2.78-5.01-6.57-5.01-4.5,0-6.77,1.79-6.77,4.96,0,2.58,1.5,3.79,4.61,4.12l3.46,.37c1.32,.15,1.92,.66,1.92,1.32,0,.75-.88,1.43-3,1.43-2.45,0-3.44-.62-3.6-1.87h-3.59c.16,3.37,2.36,5.09,7.06,5.09,4.3,0,6.7-1.88,6.7-4.72,0-2.47-1.43-3.95-4.12-4.26Z"/><polygon points="139.4 20.34 151.19 20.34 151.19 17.17 143.14 17.17 143.14 14.52 149.61 14.52 149.61 11.34 143.14 11.34 143.14 8.87 151.19 8.87 151.19 5.7 139.4 5.7 139.4 20.34"/><path d="M130.62,5.7h-6.84v14.64h6.84c5.25,0,6.7-1.96,6.7-7.43,0-5.14-1.39-7.21-6.7-7.21Zm-.15,11.47h-2.96V8.87h2.96c2.34,0,3.04,.64,3.04,4.04,0,3.11-.79,4.26-3.04,4.26Z"/><path d="M113.64,5.3c-5.32,0-8.09,3.28-8.09,7.68s2.76,7.72,8.09,7.72,8.11-3.29,8.11-7.72-2.76-7.68-8.11-7.68Zm0,12.11c-2.76,0-4.28-1.68-4.28-4.43s1.52-4.39,4.28-4.39,4.28,1.7,4.28,4.39-1.5,4.43-4.28,4.43Z"/><polygon points="91.79 8.87 96.52 8.87 96.52 20.34 100.25 20.34 100.25 8.87 104.95 8.87 104.95 5.7 91.79 5.7 91.79 8.87"/><path d="M86.36,14.74c0,1.9-1.17,2.67-3.17,2.67s-3.2-.81-3.2-2.67V5.7h-3.73V15.16c0,4.23,3.77,5.54,6.93,5.54s6.9-1.32,6.9-5.54V5.7h-3.73V14.74Z"/><path d="M65.34,5.7l-5.62,14.64h3.86l.98-2.74h6.27l.96,2.74h3.99l-5.69-14.64h-4.76Zm.34,8.78l2.05-5.74,2.02,5.74h-4.07Z"/></g></g><g><rect class="e" width="14.64" height="14.64"/><rect class="h" x="33.36" width="14.64" height="14.64"/><rect class="i" x="16.68" width="14.64" height="14.64"/><rect class="f" y="33.36" width="14.64" height="14.64"/><rect class="n" x="33.36" y="33.36" width="14.64" height="14.64"/><rect class="m" x="16.68" y="33.36" width="14.64" height="14.64"/><rect class="l" y="16.68" width="14.64" height="14.64"/><rect class="k" x="33.36" y="16.68" width="14.64" height="14.64"/><rect class="j" x="16.68" y="16.68" width="14.64" height="14.64"/><polygon class="g" points="6.11 12.1 8.62 12.1 8.62 4.66 11.43 4.66 11.43 2.53 3.21 2.53 3.21 4.66 6.11 4.66 6.11 12.1"/><rect class="g" x="22.74" y="2.53" width="2.51" height="9.57"/><polygon class="g" points="38.7 5.59 41.64 12.1 44.98 12.1 44.98 2.53 42.66 2.53 42.66 9.11 39.76 2.53 36.38 2.53 36.38 12.1 38.7 12.1 38.7 5.59"/><polygon class="g" points="11.63 19.22 8.6 19.22 5.7 22.73 5.7 19.22 3.19 19.22 3.19 28.78 5.7 28.78 5.7 24.91 8.79 28.78 11.94 28.78 7.59 23.71 11.63 19.22"/><polygon class="g" points="27.29 26.95 23.23 26.95 23.23 24.82 27 24.82 27 22.99 23.23 22.99 23.23 21.15 27.09 21.15 27.09 19.22 20.71 19.22 20.71 28.78 27.29 28.78 27.29 26.95"/><path class="g" d="M41.78,22.04c0,.95-.9,1.14-1.65,1.14h-.67v-2.13h.72c1.15,0,1.6,.27,1.6,.99Zm3.17,6.74l-1.29-3.25c-.27-.66-.53-1.12-.97-1.41,1.02-.4,1.6-1.2,1.6-2.27,0-1.64-1.29-2.63-3.44-2.63h-3.81v9.57h2.42v-3.77h.51c.83,0,1.01,.26,1.4,1.33l.87,2.44h2.7Z"/><path class="g" d="M10.64,43.29c-.53,.24-1.15,.36-1.85,.36-1.81,0-2.89-1.11-2.89-2.97s1.18-2.97,2.93-2.97c.59,0,1.26,.13,1.78,.35l.32,.13,.11-2.04-.18-.05c-.71-.21-1.59-.34-2.34-.34-3.02,0-5.21,2.07-5.21,4.92,0,1.52,.51,2.78,1.46,3.64,.92,.83,2.21,1.27,3.74,1.27,.88,0,1.73-.14,2.39-.4l.16-.06-.11-1.99-.32,.14Z"/><path class="g" d="M26.51,45.47l-.8-2.32h-3.52l-.82,2.32h-2.51l3.64-9.57h2.97l3.65,9.57h-2.62Zm-3.74-4.16h2.34l-1.15-3.2-1.19,3.2Z"/><path class="g" d="M39.63,45.47h-3.19v-9.57h3.44c3.25,0,5.04,1.66,5.04,4.65s-1.98,4.91-5.29,4.91Zm-.06-7.73h-.62v5.9h.39c1.95,0,2.98-1.09,2.98-3.08,0-1.79-.98-2.82-2.75-2.82Z"/></g></g></g></g></svg>